<svg width="500" height="500" viewBox="0 0 500 500" fill="none" xmlns="http://www.w3.org/2000/svg">
<rect width="500" height="500" rx="50" fill="url(#paint0_linear_301_2)"/>
<path d="M457.92 318.693L319.613 456.908L66.0972 457C59.9999 457.024 54.1422 454.627 49.8113 450.335C45.4804 446.043 43.0305 440.207 43 434.11V64.9698C43 52.3378 53.2577 42.08 65.8898 42.08H435.03C447.662 42.08 457.92 52.5913 457.92 65.1772V318.693ZM411.818 88.1822C285.79 88.1822 215.13 88.1822 89.1022 88.1822V410.898H273.511V295.642C273.512 289.996 275.585 284.547 279.336 280.328C283.088 276.108 288.258 273.413 293.865 272.752L296.562 272.591L411.818 272.568V88.1822ZM392.708 318.67L319.613 318.693V391.742L392.708 318.67Z" fill="white"/>
<path d="M126.6 218.2V133.48H140.04L173.4 185.44H166.56L199.8 133.48H213.36V218.2H194.52V165.28L197.88 166.12L176.16 199.96H163.68L142.08 166.12L145.32 165.28V218.2H126.6ZM255.648 186.64L223.008 133.48H244.848L269.928 176.44H255.888L280.968 133.48H302.328L269.448 186.64H255.648ZM253.368 218.2V178H272.208V218.2H253.368Z" fill="white"/>
<defs>
<linearGradient id="paint0_linear_301_2" x1="250" y1="0" x2="250" y2="500" gradientUnits="userSpaceOnUse">
<stop stop-color="#0E7490"/>
<stop offset="1" stop-color="#29406D"/>
</linearGradient>
</defs>
</svg>
